<?xml version="1.0" encoding="UTF-8" standalone="no"?>
<!DOCTYPE svg PUBLIC "-//W3C//DTD SVG 1.1//EN"
 "http://www.w3.org/Graphics/SVG/1.1/DTD/svg11.dtd">
<!-- Generated by graphviz version 2.43.0 (0)
 -->
<!-- Title: %3 Pages: 1 -->
<svg width="282pt" height="302pt"
 viewBox="0.00 0.00 282.04 302.00" xmlns="http://www.w3.org/2000/svg" xmlns:xlink="http://www.w3.org/1999/xlink">
<g id="graph0" class="graph" transform="scale(1 1) rotate(0) translate(4 298)">
<title>%3</title>
<polygon fill="white" stroke="transparent" points="-4,4 -4,-298 278.04,-298 278.04,4 -4,4"/>
<g id="clust1" class="cluster">
<title>cluster_regions</title>
<polygon fill="none" stroke="black" points="57.59,-155 57.59,-230 227.59,-230 227.59,-155 57.59,-155"/>
<text text-anchor="middle" x="192.59" y="-162.8" font-family="Times,serif" font-size="14.00">regions</text>
</g>
<g id="clust2" class="cluster">
<title>cluster_observations</title>
<polygon fill="none" stroke="black" points="139.59,-8 139.59,-83 247.59,-83 247.59,-8 139.59,-8"/>
<text text-anchor="middle" x="193.59" y="-15.8" font-family="Times,serif" font-size="14.00">observations</text>
</g>
<!-- sigma_slope -->
<g id="node1" class="node">
<title>sigma_slope</title>
<ellipse fill="white" stroke="black" cx="67.59" cy="-276" rx="67.69" ry="18"/>
<text text-anchor="middle" x="67.59" y="-272.3" font-family="Times,serif" font-size="14.00">sigma_slope</text>
</g>
<!-- mu_i -->
<g id="node6" class="node">
<title>mu_i</title>
<ellipse fill="white" stroke="black" cx="97.59" cy="-204" rx="32.49" ry="18"/>
<text text-anchor="middle" x="97.59" y="-200.3" font-family="Times,serif" font-size="14.00">mu_i</text>
</g>
<!-- sigma_slope&#45;&gt;mu_i -->
<g id="edge1" class="edge">
<title>sigma_slope&#45;&gt;mu_i</title>
<path fill="none" stroke="black" d="M74.86,-258.05C78.32,-249.97 82.54,-240.12 86.4,-231.11"/>
<polygon fill="black" stroke="black" points="89.68,-232.36 90.4,-221.79 83.24,-229.6 89.68,-232.36"/>
</g>
<!-- sigma_p50 -->
<g id="node2" class="node">
<title>sigma_p50</title>
<ellipse fill="white" stroke="black" cx="213.59" cy="-276" rx="60.39" ry="18"/>
<text text-anchor="middle" x="213.59" y="-272.3" font-family="Times,serif" font-size="14.00">sigma_p50</text>
</g>
<!-- p50_i -->
<g id="node7" class="node">
<title>p50_i</title>
<ellipse fill="white" stroke="black" cx="183.59" cy="-204" rx="36" ry="18"/>
<text text-anchor="middle" x="183.59" y="-200.3" font-family="Times,serif" font-size="14.00">p50_i</text>
</g>
<!-- sigma_p50&#45;&gt;p50_i -->
<g id="edge2" class="edge">
<title>sigma_p50&#45;&gt;p50_i</title>
<path fill="none" stroke="black" d="M206.33,-258.05C202.87,-249.97 198.65,-240.12 194.78,-231.11"/>
<polygon fill="black" stroke="black" points="197.95,-229.6 190.79,-221.79 191.51,-232.36 197.95,-229.6"/>
</g>
<!-- slopes -->
<g id="node3" class="node">
<title>slopes</title>
<ellipse fill="white" stroke="black" stroke-dasharray="5,2" cx="94.59" cy="-129" rx="40.09" ry="18"/>
<text text-anchor="middle" x="94.59" y="-125.3" font-family="Times,serif" font-size="14.00">slopes</text>
</g>
<!-- p -->
<g id="node5" class="node">
<title>p</title>
<ellipse fill="white" stroke="black" stroke-dasharray="5,2" cx="103.59" cy="-57" rx="27" ry="18"/>
<text text-anchor="middle" x="103.59" y="-53.3" font-family="Times,serif" font-size="14.00">p</text>
</g>
<!-- slopes&#45;&gt;p -->
<g id="edge5" class="edge">
<title>slopes&#45;&gt;p</title>
<path fill="none" stroke="black" d="M96.82,-110.7C97.81,-102.98 99,-93.71 100.11,-85.11"/>
<polygon fill="black" stroke="black" points="103.59,-85.47 101.39,-75.1 96.65,-84.58 103.59,-85.47"/>
</g>
<!-- obs -->
<g id="node8" class="node">
<title>obs</title>
<ellipse fill="grey" stroke="black" cx="180.59" cy="-57" rx="27" ry="18"/>
<text text-anchor="middle" x="180.59" y="-53.3" font-family="Times,serif" font-size="14.00">obs</text>
</g>
<!-- slopes&#45;&gt;obs -->
<g id="edge7" class="edge">
<title>slopes&#45;&gt;obs</title>
<path fill="none" stroke="black" d="M113.25,-112.81C125.77,-102.62 142.4,-89.09 155.99,-78.02"/>
<polygon fill="black" stroke="black" points="158.46,-80.53 164,-71.5 154.04,-75.1 158.46,-80.53"/>
</g>
<!-- p50s -->
<g id="node4" class="node">
<title>p50s</title>
<ellipse fill="white" stroke="black" stroke-dasharray="5,2" cx="185.59" cy="-129" rx="33.29" ry="18"/>
<text text-anchor="middle" x="185.59" y="-125.3" font-family="Times,serif" font-size="14.00">p50s</text>
</g>
<!-- p50s&#45;&gt;p -->
<g id="edge6" class="edge">
<title>p50s&#45;&gt;p</title>
<path fill="none" stroke="black" d="M168.6,-113.5C156.72,-103.35 140.67,-89.65 127.5,-78.4"/>
<polygon fill="black" stroke="black" points="129.6,-75.6 119.73,-71.77 125.06,-80.93 129.6,-75.6"/>
</g>
<!-- p50s&#45;&gt;obs -->
<g id="edge8" class="edge">
<title>p50s&#45;&gt;obs</title>
<path fill="none" stroke="black" d="M184.36,-110.7C183.81,-102.98 183.14,-93.71 182.53,-85.11"/>
<polygon fill="black" stroke="black" points="186.02,-84.83 181.82,-75.1 179.04,-85.33 186.02,-84.83"/>
</g>
<!-- mu_i&#45;&gt;slopes -->
<g id="edge3" class="edge">
<title>mu_i&#45;&gt;slopes</title>
<path fill="none" stroke="black" d="M96.88,-185.7C96.54,-177.25 96.11,-166.87 95.72,-157.37"/>
<polygon fill="black" stroke="black" points="99.21,-157.02 95.3,-147.18 92.21,-157.31 99.21,-157.02"/>
</g>
<!-- p50_i&#45;&gt;p50s -->
<g id="edge4" class="edge">
<title>p50_i&#45;&gt;p50s</title>
<path fill="none" stroke="black" d="M184.07,-185.7C184.3,-177.25 184.58,-166.87 184.84,-157.37"/>
<polygon fill="black" stroke="black" points="188.35,-157.27 185.12,-147.18 181.35,-157.08 188.35,-157.27"/>
</g>
</g>
</svg>
